<?xml version="1.0" encoding="utf-8"?>
<svg version="1.1" xmlns:xlink="http://www.w3.org/1999/xlink" width="160px" height="90px" xmlns="http://www.w3.org/2000/svg">
  <defs>
    <filter x="614px" y="1338px" width="160px" height="90px" filterUnits="userSpaceOnUse" id="filter4">
      <feOffset dx="5" dy="5" in="SourceAlpha" result="shadowOffsetInner" />
      <feGaussianBlur stdDeviation="2.5" in="shadowOffsetInner" result="shadowGaussian" />
      <feComposite in2="shadowGaussian" operator="atop" in="SourceAlpha" result="shadowComposite" />
      <feColorMatrix type="matrix" values="0 0 0 0 1  0 0 0 0 1  0 0 0 0 1  0 0 0 0.349019607843137 0  " in="shadowComposite" />
    </filter>
    <g id="widget5">
      <path d="M 614.5 1358  A 19.5 19.5 0 0 1 634 1338.5 L 744 1338.5  A 19.5 19.5 0 0 1 763.5 1358 L 763.5 1398  A 19.5 19.5 0 0 1 744 1417.5 L 634 1417.5  A 19.5 19.5 0 0 1 614.5 1398 L 614.5 1358  Z " fill-rule="nonzero" fill="#f56623" stroke="none" fill-opacity="0.996078431372549" />
      <path d="M 614.5 1358  A 19.5 19.5 0 0 1 634 1338.5 L 744 1338.5  A 19.5 19.5 0 0 1 763.5 1358 L 763.5 1398  A 19.5 19.5 0 0 1 744 1417.5 L 634 1417.5  A 19.5 19.5 0 0 1 614.5 1398 L 614.5 1358  Z " stroke-width="1" stroke="#ffffff" fill="none" />
    </g>
  </defs>
  <g transform="matrix(1 0 0 1 -614 -1338 )">
    <use xlink:href="#widget5" filter="url(#filter4)" />
    <use xlink:href="#widget5" />
  </g>
</svg>