<?xml version="1.0" encoding="utf-8"?>
<svg version="1.1" xmlns:xlink="http://www.w3.org/1999/xlink" width="160px" height="90px" xmlns="http://www.w3.org/2000/svg">
  <defs>
    <filter x="614px" y="1426px" width="160px" height="90px" filterUnits="userSpaceOnUse" id="filter8">
      <feOffset dx="5" dy="5" in="SourceAlpha" result="shadowOffsetInner" />
      <feGaussianBlur stdDeviation="2.5" in="shadowOffsetInner" result="shadowGaussian" />
      <feComposite in2="shadowGaussian" operator="atop" in="SourceAlpha" result="shadowComposite" />
      <feColorMatrix type="matrix" values="0 0 0 0 1  0 0 0 0 1  0 0 0 0 1  0 0 0 0.349019607843137 0  " in="shadowComposite" />
    </filter>
    <g id="widget9">
      <path d="M 614.5 1446  A 19.5 19.5 0 0 1 634 1426.5 L 744 1426.5  A 19.5 19.5 0 0 1 763.5 1446 L 763.5 1486  A 19.5 19.5 0 0 1 744 1505.5 L 634 1505.5  A 19.5 19.5 0 0 1 614.5 1486 L 614.5 1446  Z " fill-rule="nonzero" fill="#02a7f0" stroke="none" fill-opacity="0.992156862745098" />
      <path d="M 614.5 1446  A 19.5 19.5 0 0 1 634 1426.5 L 744 1426.5  A 19.5 19.5 0 0 1 763.5 1446 L 763.5 1486  A 19.5 19.5 0 0 1 744 1505.5 L 634 1505.5  A 19.5 19.5 0 0 1 614.5 1486 L 614.5 1446  Z " stroke-width="1" stroke="#ffffff" fill="none" />
    </g>
  </defs>
  <g transform="matrix(1 0 0 1 -614 -1426 )">
    <use xlink:href="#widget9" filter="url(#filter8)" />
    <use xlink:href="#widget9" />
  </g>
</svg>