<svg t="1606097358642" class="icon" viewBox="0 0 1365 1024" version="1.1" xmlns="http://www.w3.org/2000/svg" p-id="2768" width="200" height="200"><path d="M1211.733333 0H149.333333A151.04 151.04 0 0 0 0 149.333333v725.333334A154.453333 154.453333 0 0 0 153.6 1024h1058.133333a157.013333 157.013333 0 0 0 153.6-157.866667v-708.266666A157.013333 157.013333 0 0 0 1211.733333 0z m76.8 866.133333a76.8 76.8 0 0 1-76.8 76.8H149.333333a76.8 76.8 0 0 1-76.8-76.8v-708.266666a76.8 76.8 0 0 1 76.8-76.8H1211.733333a76.8 76.8 0 0 1 76.8 76.8z" fill="#2c2c2c" p-id="2769" data-spm-anchor-id="a313x.7781069.0.i0" class=""></path><path d="M499.2 695.466667H204.8a38.4 38.4 0 1 0 0 76.8h294.4a38.4 38.4 0 0 0 38.4-38.4 45.226667 45.226667 0 0 0-38.4-38.4z m110.933333-200.533334H204.8a38.4 38.4 0 1 0 0 76.8h405.333333a38.4 38.4 0 0 0 38.4-38.4 45.226667 45.226667 0 0 0-38.4-38.4z m448 72.533334a209.92 209.92 0 0 0 21.333334-281.6 176.64 176.64 0 0 0-260.266667-25.6 209.92 209.92 0 0 0-21.333333 281.6c8.533333 8.533333 12.8 17.066667 21.333333 25.6A285.013333 285.013333 0 0 0 682.666667 814.933333a38.4 38.4 0 0 0 76.8 0A192 192 0 0 1 938.666667 614.4a192 192 0 0 1 183.466666 200.533333 38.4 38.4 0 0 0 76.8 0 271.36 271.36 0 0 0-140.8-247.466666z m-115.2-34.133334a117.76 117.76 0 0 1-110.933333-119.466666 115.2 115.2 0 0 1 110.933333-119.466667 117.76 117.76 0 0 1 110.933334 119.466667 115.2 115.2 0 0 1-110.933334 119.466666z m-298.666666-238.933333h-443.733334a38.4 38.4 0 1 0 0 76.8h443.733334a38.4 38.4 0 1 0 0-76.8z" fill="#2c2c2c" p-id="2770"></path></svg>