<svg t="1606106889494" class="icon" viewBox="0 0 1034 1024" version="1.1" xmlns="http://www.w3.org/2000/svg" p-id="4364" width="32" height="32"><path d="M849.92 655.36c-71.68-20.48-153.6-40.96-194.56-10.24l-30.72 30.72-10.24 20.48c-10.24 0-10.24 10.24-20.48 20.48-10.24 0-40.96 0-61.44-10.24-30.72-30.72-71.68-61.44-112.64-102.4-40.96-30.72-71.68-71.68-102.4-112.64-10.24-20.48-10.24-30.72-10.24-51.2 0-10.24 20.48-30.72 30.72-40.96 20.48-10.24 40.96-30.72 51.2-51.2 20.48-40.96 0-102.4-20.48-163.84C327.68 81.92 245.76 10.24 184.32 30.72h-10.24C122.88 40.96 92.16 61.44 61.44 92.16c-20.48 20.48-40.96 61.44-51.2 92.16-40.96 163.84 61.44 399.36 256 583.68C501.76 1003.52 819.2 1095.68 952.32 962.56c30.72-30.72 40.96-61.44 61.44-102.4v-20.48c10.24-61.44-61.44-143.36-163.84-184.32z m102.4 194.56c-10.24 30.72-20.48 51.2-40.96 71.68-112.64 102.4-389.12 20.48-614.4-194.56C122.88 563.2 20.48 337.92 61.44 194.56c10.24-20.48 20.48-51.2 40.96-61.44 20.48-20.48 51.2-30.72 81.92-40.96 10.24 0 40.96 0 61.44 20.48 20.48 20.48 51.2 61.44 71.68 102.4 20.48 51.2 40.96 102.4 20.48 133.12 0 10.24-20.48 20.48-20.48 20.48-30.72 10.24-51.2 30.72-61.44 61.44-10.24 30.72 0 61.44 10.24 81.92l10.24 10.24c40.96 51.2 71.68 92.16 112.64 133.12 40.96 30.72 71.68 61.44 112.64 92.16l20.48 10.24c40.96 20.48 71.68 20.48 112.64 10.24 30.72-10.24 40.96-40.96 51.2-61.44l10.24-10.24c20.48-20.48 71.68-10.24 133.12 10.24 40.96 20.48 81.92 40.96 102.4 71.68 20.48 20.48 30.72 30.72 30.72 51.2 0 10.24-10.24 10.24-10.24 20.48zM665.6 245.76c61.44 0 112.64 51.2 112.64 102.4 0 20.48 10.24 30.72 30.72 30.72 20.48 0 30.72-10.24 30.72-30.72 0-92.16-71.68-163.84-163.84-163.84-20.48 0-30.72 10.24-30.72 30.72-10.24 20.48 0 30.72 20.48 30.72zM665.6 0c-10.24 0-30.72 10.24-30.72 20.48s10.24 30.72 30.72 30.72c163.84 0 307.2 133.12 307.2 307.2 0 20.48 10.24 30.72 30.72 30.72 20.48 0 30.72-10.24 30.72-30.72C1024 163.84 860.16 0 665.6 0z" p-id="4365"></path></svg>