<svg t="1606107478610" class="icon" viewBox="0 0 1024 1024" version="1.1" xmlns="http://www.w3.org/2000/svg" p-id="5176" width="32" height="32"><path d="M510.62272 805.563733c-5.77024 0-11.13088-3.012267-14.127787-7.9616l-20.29568-33.518933c-29.2864-48.401067-73.4976-96.902827-116.25472-143.808853-83.478187-91.644587-169.68704-186.2912-169.68704-300.747093C190.2592 143.33952 333.597013 0 509.78304 0s319.52384 143.33952 319.52384 319.525547c0 112.750933-86.649173 207.648427-170.446507 299.419307-45.740373 50.082133-88.942933 97.38752-114.778453 143.860053l-19.01568 34.259627c-2.858667 5.149013-8.241493 8.384853-14.129493 8.497493C510.830933 805.562027 510.726827 805.563733 510.62272 805.563733zM509.78304 33.032533c-157.97248 0-286.493013 128.520533-286.493013 286.493013 0 101.66784 81.83296 191.506773 160.969387 278.388053 43.922773 48.187733 89.239893 97.902933 120.198827 149.06368l5.543253 9.156267 5.20192-9.373013c27.717973-49.856853 72.183467-98.54464 119.263573-150.091093 79.547733-87.120213 161.805653-177.204907 161.805653-277.143893C796.274347 161.553067 667.75552 33.032533 509.78304 33.032533z" p-id="5177"></path><path d="M509.78304 437.026133c-72.372907 0-131.252907-58.88-131.252907-131.252907s58.88-131.252907 131.252907-131.252907c72.372907 0 131.252907 58.88 131.252907 131.252907S582.157653 437.026133 509.78304 437.026133zM509.78304 207.55456c-54.15936 0-98.220373 44.061013-98.220373 98.220373s44.061013 98.220373 98.220373 98.220373 98.220373-44.061013 98.220373-98.220373S563.9424 207.55456 509.78304 207.55456z" p-id="5178"></path><path d="M977.599147 1024 46.390613 1024c-17.017173 0-32.45568-10.05568-39.335253-25.622187-6.877867-15.602347-3.8912-33.79712 7.6032-46.36672l237.72672-260.363947c6.14912-6.736213 16.597333-7.20896 23.333547-1.05984 6.736213 6.150827 7.210667 16.597333 1.05984 23.333547L39.04512 974.293333c-2.670933 2.920107-3.362133 7.133867-1.769813 10.745173 1.588907 3.595947 5.169493 5.92896 9.115307 5.92896l931.208533 0c4.012373 0 7.611733-2.387627 9.168213-6.079147 1.559893-3.710293 0.776533-7.95648-2.005333-10.806613L731.90912 713.680213c-6.355627-6.545067-6.202027-17.001813 0.341333-23.354027 6.545067-6.355627 17.00352-6.202027 23.354027 0.341333l252.827307 260.375893c12.045653 12.346027 15.501653 30.672213 8.779093 46.66368C1010.474667 1013.684907 994.92864 1024 977.599147 1024z" p-id="5179"></path></svg>