<svg t="1606107623954" class="icon" viewBox="0 0 1024 1024" version="1.1" xmlns="http://www.w3.org/2000/svg" p-id="6661" width="32" height="32"><path d="M331.10298 505.605226 187.472881 418.92049C175.900197 411.940573 160.899339 415.723101 153.980661 427.342368 147.041206 438.982531 150.781032 454.049958 162.353716 461.029878L305.983814 547.714611C317.535722 554.694531 332.53658 550.932899 339.476035 539.292736 346.41549 527.673469 342.675664 512.585142 331.10298 505.605226L331.10298 505.605226ZM331.10298 505.605226 187.472881 418.92049C175.900197 411.940573 160.899339 415.723101 153.980661 427.342368 147.041206 438.982531 150.781032 454.049958 162.353716 461.029878L305.983814 547.714611C317.535722 554.694531 332.53658 550.932899 339.476035 539.292736 346.41549 527.673469 342.675664 512.585142 331.10298 505.605226L331.10298 505.605226ZM331.10298 505.605226 187.472881 418.92049C175.900197 411.940573 160.899339 415.723101 153.980661 427.342368 147.041206 438.982531 150.781032 454.049958 162.353716 461.029878L305.983814 547.714611C317.535722 554.694531 332.53658 550.932899 339.476035 539.292736 346.41549 527.673469 342.675664 512.585142 331.10298 505.605226L331.10298 505.605226ZM331.10298 505.605226 187.472881 418.92049C175.900197 411.940573 160.899339 415.723101 153.980661 427.342368 147.041206 438.982531 150.781032 454.049958 162.353716 461.029878L305.983814 547.714611C317.535722 554.694531 332.53658 550.932899 339.476035 539.292736 346.41549 527.673469 342.675664 512.585142 331.10298 505.605226L331.10298 505.605226ZM331.10298 505.605226 187.472881 418.92049C175.900197 411.940573 160.899339 415.723101 153.980661 427.342368 147.041206 438.982531 150.781032 454.049958 162.353716 461.029878L305.983814 547.714611C317.535722 554.694531 332.53658 550.932899 339.476035 539.292736 346.41549 527.673469 342.675664 512.585142 331.10298 505.605226L331.10298 505.605226Z" p-id="6662"></path><path d="M950.542842 386.528653C937.058691 386.528653 926.130086 397.520979 926.130086 411.083754L926.130086 714.584816 515.33097 947.806042 515.33097 517.976816C515.33097 516.075101 515.310192 512.08359 515.310192 512.08359L933.859062 273.533388C950.87527 263.836735 950.231187 238.989061 932.757891 230.19102L501.846816 13.479184C494.969693 10.03102 486.866736 10.03102 480.010387 13.479184L49.099316 230.19102C33.516707 241.037061 35.594388 264.108408 35.594388 266.616163L35.594388 728.920816C35.594388 737.551674 40.08218 745.534694 47.416394 749.965062L478.327466 1010.917878C478.410573 1010.959674 478.49368 1011.022368 478.597565 1011.064163 491.042877 1017.479837 502.760998 1011.335837 502.927213 1011.252246 502.947987 1011.231347 502.968765 1011.231347 503.01032 1011.210448L962.551837 750.299427C970.21848 745.952653 974.976371 737.760653 974.976371 728.899917L974.976371 411.062858C974.955594 397.520979 964.026992 386.528653 950.542842 386.528653L950.542842 386.528653ZM466.484685 517.997715 466.484685 946.426774 84.419896 715.065469 84.419896 294.326857 466.484685 511.89551C466.484685 511.561142 466.484685 513.441958 466.484685 517.997715L466.484685 517.997715ZM490.918214 469.535347 111.907617 253.534041 490.918214 62.923755 869.908035 253.534041 490.918214 469.535347 490.918214 469.535347Z" p-id="6663"></path></svg>