<?xml version="1.0" encoding="utf-8"?>
<svg version="1.1" xmlns:xlink="http://www.w3.org/1999/xlink" width="21px" height="21px" xmlns="http://www.w3.org/2000/svg">
  <g transform="matrix(1 0 0 1 -1329 -2484 )">
    <path d="M 1339.5 2484  C 1345.38 2484  1350 2488.62  1350 2494.5  C 1350 2500.38  1345.38 2505  1339.5 2505  C 1333.62 2505  1329 2500.38  1329 2494.5  C 1329 2488.62  1333.62 2484  1339.5 2484  Z " fill-rule="nonzero" fill="#fd3c53" stroke="none" fill-opacity="0.996078431372549" />
    <path d="M 1339.5 2484.5  C 1345.1 2484.5  1349.5 2488.9  1349.5 2494.5  C 1349.5 2500.1  1345.1 2504.5  1339.5 2504.5  C 1333.9 2504.5  1329.5 2500.1  1329.5 2494.5  C 1329.5 2488.9  1333.9 2484.5  1339.5 2484.5  Z " stroke-width="1" stroke="#797979" fill="none" />
  </g>
</svg>