<?xml version="1.0" encoding="utf-8"?>
<svg version="1.1" xmlns:xlink="http://www.w3.org/1999/xlink" width="81px" height="39px" xmlns="http://www.w3.org/2000/svg">
  <defs>
    <filter x="1523px" y="2323px" width="81px" height="39px" filterUnits="userSpaceOnUse" id="filter15">
      <feOffset dx="5" dy="5" in="SourceAlpha" result="shadowOffsetInner" />
      <feGaussianBlur stdDeviation="2.5" in="shadowOffsetInner" result="shadowGaussian" />
      <feComposite in2="shadowGaussian" operator="atop" in="SourceAlpha" result="shadowComposite" />
      <feColorMatrix type="matrix" values="0 0 0 0 0  0 0 0 0 0  0 0 0 0 0  0 0 0 0.164705882352941 0  " in="shadowComposite" />
    </filter>
    <g id="widget16">
      <path d="M 1524 2328  A 4 4 0 0 1 1528 2324 L 1589 2324  A 4 4 0 0 1 1593 2328 L 1593 2347  A 4 4 0 0 1 1589 2351 L 1528 2351  A 4 4 0 0 1 1524 2347 L 1524 2328  Z " fill-rule="nonzero" fill="#f21630" stroke="none" fill-opacity="0.996078431372549" />
      <path d="M 1523.5 2328  A 4.5 4.5 0 0 1 1528 2323.5 L 1589 2323.5  A 4.5 4.5 0 0 1 1593.5 2328 L 1593.5 2347  A 4.5 4.5 0 0 1 1589 2351.5 L 1528 2351.5  A 4.5 4.5 0 0 1 1523.5 2347 L 1523.5 2328  Z " stroke-width="1" stroke="#d9001b" fill="none" stroke-opacity="0.96078431372549" />
    </g>
  </defs>
  <g transform="matrix(1 0 0 1 -1523 -2323 )">
    <use xlink:href="#widget16" filter="url(#filter15)" />
    <use xlink:href="#widget16" />
  </g>
</svg>