<?xml version="1.0" encoding="utf-8"?>
<svg version="1.1" xmlns:xlink="http://www.w3.org/1999/xlink" width="14px" height="11px" xmlns="http://www.w3.org/2000/svg">
  <g transform="matrix(1 0 0 1 -1275 -2308 )">
    <path d="M 7.66293279022403 10.4204301075269  C 7.31602172437204 10.8068100358423  7.09504412763069 11  7 11  C 6.90495587236931 11  6.68397827562797 10.8068100358423  6.33706720977597 10.4204301075269  C 5.99015614392397 10.0340501792115  5.81670061099796 9.78829151732378  5.81670061099796 9.6831541218638  C 5.81670061099796 9.51493428912784  5.96520706042091 9.37299880525687  6.2622199592668 9.2573476702509  C 6.55923285811269 9.14169653524493  6.8051595383571 9.08387096774194  7 9.08387096774194  C 7.1948404616429 9.08387096774194  7.44076714188731 9.14169653524493  7.7377800407332 9.2573476702509  C 8.03479293957909 9.37299880525687  8.18329938900204 9.51493428912784  8.18329938900204 9.6831541218638  C 8.18329938900204 9.78829151732378  8.00984385607603 10.0340501792115  7.66293279022403 10.4204301075269  Z M 9.59114052953157 8.27168458781362  C 9.23234894772573 8.66594982078853  9.010183299389 8.86308243727599  8.92464358452138 8.86308243727599  C 8.91513917175831 8.86308243727599  8.82009504412763 8.7973715651135  8.63951120162933 8.66594982078853  C 8.45892735913103 8.53452807646356  8.21775288526816 8.4031063321386  7.91598778004073 8.27168458781362  C 7.61422267481331 8.14026284348865  7.30889341479973 8.07455197132617  7 8.07455197132617  C 6.69110658520027 8.07455197132617  6.38577732518669 8.14026284348865  6.08401221995927 8.27168458781362  C 5.78224711473184 8.4031063321386  5.54226069246435 8.53452807646356  5.36405295315682 8.66594982078853  C 5.18584521384929 8.7973715651135  5.08961303462322 8.86308243727599  5.07535641547862 8.86308243727599  C 4.989816700611 8.86308243727599  4.76765105227427 8.66594982078853  4.40885947046843 8.27168458781362  C 4.0500678886626 7.87741935483871  3.87067209775968 7.63297491039427  3.87067209775968 7.53835125448028  C 3.87067209775968 7.4700119474313  3.89443312966735 7.40955794504182  3.94195519348268 7.35698924731184  C 4.31262729124236 6.95221027479092  4.77834351663272 6.63416965352449  5.33910386965377 6.40286738351254  C 5.89986422267481 6.1715651135006  6.45349626612356 6.05591397849462  7 6.05591397849462  C 7.54650373387645 6.05591397849462  8.10013577732519 6.1715651135006  8.66089613034623 6.40286738351254  C 9.22165648336728 6.63416965352449  9.68737270875764 6.95221027479092  10.0580448065173 7.35698924731184  C 10.1055668703327 7.40955794504182  10.1293279022403 7.4700119474313  10.1293279022403 7.53835125448028  C 10.1293279022403 7.63297491039427  9.9499321113374 7.87741935483871  9.59114052953157 8.27168458781362  Z M 11.5264765784114 6.1268817204301  C 11.1700610997963 6.52114695340502  10.9514596062458 6.71827956989247  10.8706720977597 6.71827956989247  C 10.8183978275628 6.71827956989247  10.7637474541751 6.69725209080048  10.7067209775967 6.65519713261649  C 10.0604209097081 6.10322580645161  9.46164290563476 5.69713261648745  8.91038696537679 5.43691756272401  C 8.35913102511881 5.17670250896057  7.72233536999321 5.04659498207886  7 5.04659498207886  C 6.59606245756959 5.04659498207886  6.19093686354379 5.10442054958184  5.78462321792261 5.22007168458781  C 5.37830957230143 5.33572281959378  5.02427019687712 5.47502986857825  4.7225050916497 5.63799283154123  C 4.42073998642227 5.80095579450419  4.1510522742702 5.96391875746714  3.91344195519348 6.1268817204301  C 3.67583163611677 6.28984468339308  3.48811948404617 6.42915173237753  3.35030549898168 6.54480286738352  C 3.21249151391718 6.66045400238948  3.13883231500339 6.71827956989247  3.12932790224032 6.71827956989247  C 3.04854039375424 6.71827956989247  2.82993890020367 6.52114695340502  2.4735234215886 6.1268817204301  C 2.11710794297353 5.73261648745519  1.93890020366599 5.48817204301076  1.93890020366599 5.39354838709677  C 1.93890020366599 5.33046594982079  1.96266123557366 5.2726403823178  2.010183299389 5.22007168458781  C 2.63747454175153 4.52616487455197  3.39782756279702 3.98733572281959  4.29124236252546 3.60358422939068  C 5.18465716225391 3.21983273596177  6.08757637474542 3.02795698924731  7 3.02795698924731  C 7.91242362525458 3.02795698924731  8.8153428377461 3.21983273596177  9.70875763747454 3.60358422939068  C 10.602172437203 3.98733572281959  11.3625254582485 4.52616487455197  11.989816700611 5.22007168458781  C 12.0373387644264 5.2726403823178  12.061099796334 5.33046594982079  12.061099796334 5.39354838709677  C 12.061099796334 5.48817204301076  11.8828920570265 5.73261648745519  11.5264765784114 6.1268817204301  Z M 13.4618126272912 3.98996415770609  C 13.1030210454854 4.38422939068101  12.8832315003394 4.58136200716846  12.8024439918534 4.58136200716846  C 12.7501697216565 4.58136200716846  12.6978954514596 4.55770609318997  12.6456211812627 4.51039426523297  C 11.7949762389681 3.68506571087216  10.9122539035981 3.06344086021505  9.99745417515275 2.64551971326165  C 9.0826544467074 2.22759856630824  8.08350305498982 2.01863799283154  7 2.01863799283154  C 5.91649694501018 2.01863799283154  4.9173455532926 2.22759856630824  4.00254582484725 2.64551971326165  C 3.0877460964019 3.06344086021505  2.20502376103191 3.68506571087216  1.35437881873727 4.51039426523297  C 1.3021045485404 4.55770609318997  1.24983027834352 4.58136200716846  1.19755600814664 4.58136200716846  C 1.11676849966056 4.58136200716846  0.896978954514594 4.38422939068101  0.538187372708755 3.98996415770609  C 0.179395790902923 3.59569892473118  0 3.35125448028674  0 3.25663082437276  C 0 3.18829151732378  0.023761031907668 3.12783751493429  0.0712830957230182 3.0752688172043  C 0.959945689069926 2.09749103942652  2.01731160896131 1.34050179211469  3.24338085539715 0.804301075268819  C 4.46945010183299 0.268100358422941  5.72165648336728 0  7 0  C 8.27834351663272 0  9.53054989816701 0.268100358422941  10.7566191446029 0.804301075268819  C 11.9826883910387 1.34050179211469  13.0400543109301 2.09749103942652  13.928716904277 3.0752688172043  C 13.9762389680923 3.12783751493429  14 3.18829151732378  14 3.25663082437276  C 14 3.35125448028674  13.8206042090971 3.59569892473118  13.4618126272912 3.98996415770609  Z " fill-rule="nonzero" fill="#333333" stroke="none" transform="matrix(1 0 0 1 1275 2308 )" />
  </g>
</svg>