<?xml version="1.0" encoding="utf-8"?>
<svg version="1.1" xmlns:xlink="http://www.w3.org/1999/xlink" width="21px" height="21px" xmlns="http://www.w3.org/2000/svg">
  <g transform="matrix(1 0 0 1 -1329 -2362 )">
    <path d="M 1339.5 2362  C 1345.38 2362  1350 2366.62  1350 2372.5  C 1350 2378.38  1345.38 2383  1339.5 2383  C 1333.62 2383  1329 2378.38  1329 2372.5  C 1329 2366.62  1333.62 2362  1339.5 2362  Z " fill-rule="nonzero" fill="#000000" stroke="none" fill-opacity="0.403921568627451" />
    <path d="M 1339.5 2362.5  C 1345.1 2362.5  1349.5 2366.9  1349.5 2372.5  C 1349.5 2378.1  1345.1 2382.5  1339.5 2382.5  C 1333.9 2382.5  1329.5 2378.1  1329.5 2372.5  C 1329.5 2366.9  1333.9 2362.5  1339.5 2362.5  Z " stroke-width="1" stroke="#d9001b" fill="none" />
  </g>
</svg>