<?xml version="1.0" encoding="utf-8"?>
<svg version="1.1" xmlns:xlink="http://www.w3.org/1999/xlink" width="21px" height="21px" xmlns="http://www.w3.org/2000/svg">
  <g transform="matrix(1 0 0 1 -1577 -2970 )">
    <path d="M 1587.5 2970  C 1593.38 2970  1598 2974.62  1598 2980.5  C 1598 2986.38  1593.38 2991  1587.5 2991  C 1581.62 2991  1577 2986.38  1577 2980.5  C 1577 2974.62  1581.62 2970  1587.5 2970  Z " fill-rule="nonzero" fill="#000000" stroke="none" fill-opacity="0.403921568627451" />
    <path d="M 1587.5 2970.5  C 1593.1 2970.5  1597.5 2974.9  1597.5 2980.5  C 1597.5 2986.1  1593.1 2990.5  1587.5 2990.5  C 1581.9 2990.5  1577.5 2986.1  1577.5 2980.5  C 1577.5 2974.9  1581.9 2970.5  1587.5 2970.5  Z " stroke-width="1" stroke="#02a7f0" fill="none" />
  </g>
</svg>