<svg t="1606227776110" class="icon" viewBox="0 0 1170 1024" version="1.1" xmlns="http://www.w3.org/2000/svg" p-id="3343" width="48" height="48"><path d="M862.694387 0.001463a306.711943 306.711943 0 0 0-217.477785 90.063109L585.142021 150.187915l-60.074581-60.123343A306.711943 306.711943 0 0 0 307.540894 0.001463a307.589656 307.589656 0 0 0-217.477785 525.018678l430.615766 430.664528c17.79807 17.79807 41.106227 26.672724 64.414384 26.672724a90.697013 90.697013 0 0 0 64.414385-26.672724l430.664527-430.664528a307.589656 307.589656 0 0 0 0-434.955569A306.711943 306.711943 0 0 0 862.694387 0.001463m0 97.52367c56.124872 0 108.836416 21.845302 148.528549 61.537436A208.700654 208.700654 0 0 1 1072.760372 307.542357a208.700654 208.700654 0 0 1-61.439912 148.52855l-426.178439 426.080915-426.080915-426.080915A208.554369 208.554369 0 0 1 97.52367 307.542357c0-56.07611 21.845302-108.836416 61.537436-148.479788A208.554369 208.554369 0 0 1 307.540894 97.525133c56.07611 0 108.836416 21.845302 148.479788 61.537436l60.123343 60.074581L585.142021 288.086385l68.949235-68.949235 60.123343-60.074581A208.603131 208.603131 0 0 1 862.694387 97.525133" fill="#ffffff" p-id="3344"></path></svg>