<svg t="1606228338385" class="icon" viewBox="0 0 1024 1024" version="1.1" xmlns="http://www.w3.org/2000/svg" p-id="6663" width="48" height="48"><path d="M557.56774717 967.67747161c-5.30760691 0-10.61521383-1.03563061-15.79336692-3.10689186-15.53445925-6.34323753-25.63185778-21.48933531-25.63185778-38.31833284V674.33509925c-167.77216 39.22450963-316.25569975 116.37899061-421.76056889 220.07150618-13.59265185 13.33374419-34.43471803 15.66391309-50.61644641 5.82542222s-23.56059653-29.51547259-17.99408199-47.6390084c37.6710637-121.29823605 105.37541531-233.01688889 195.73418667-323.11675258 83.10935703-82.85044939 184.4717037-146.41227852 294.63691062-185.11897284V100.07792197c0-16.82899753 10.09739852-31.84564148 25.63185778-38.31833283 15.53445925-6.34323753 33.26963358-2.84798419 45.17938567 9.06176789L997.84021333 483.52015803c16.05227457 16.18172839 16.05227457 42.20194765 0 58.38367605L586.95376592 955.50881185c-7.89668347 7.89668347-18.51189728 12.16865975-29.38601875 12.16865976z m0-385.77240494c9.5795832 0 19.02971259 3.3657995 26.53803456 9.5795832 9.45012939 7.89668347 14.88719013 19.5475279 14.88719012 31.84564149v202.46578567l311.07754667-313.01935406-311.07754667-312.37208494v173.85648987c0 18.25298963-11.9097521 34.30526419-29.25656494 39.61287112C399.89298569 465.91443753 258.39995259 579.31599013 170.37135013 728.96461431c29.38601876-18.77080494 60.32548347-36.24707161 92.68894024-52.29934616 88.02860247-43.49648592 184.60115753-75.08321975 286.86968099-94.11293234 2.58907653-0.38836148 5.17815309-0.64726914 7.63777581-0.64726914z" fill="#ffffff" p-id="6664"></path></svg>