<?xml version="1.0" encoding="utf-8"?>
<svg version="1.1" xmlns:xlink="http://www.w3.org/1999/xlink" width="17px" height="29px" xmlns="http://www.w3.org/2000/svg">
  <g transform="matrix(1 0 0 1 -2014 -237 )">
    <path d="M 16.7079037800687 1.74348697394789  C 16.9026345933562 1.93720774883099  17 2.15998663994656  17 2.41182364729459  C 17 2.66366065464262  16.9026345933562 2.88643954575818  16.7079037800687 3.08016032064128  L 5.22852233676976 14.5  L 16.7079037800687 25.9198396793587  C 16.9026345933562 26.1135604542418  17 26.3363393453574  17 26.5881763527054  C 17 26.8400133600534  16.9026345933562 27.062792251169  16.7079037800687 27.2565130260521  L 15.2474226804124 28.7094188376754  C 15.0526918671249 28.9031396125585  14.8287514318442 29  14.5756013745704 29  C 14.3224513172967 29  14.098510882016 28.9031396125585  13.9037800687285 28.7094188376754  L 0.292096219931271 15.1683366733467  C 0.0973654066437572 14.9746158984636  0 14.751837007348  0 14.5  C 0 14.248162992652  0.0973654066437572 14.0253841015364  0.292096219931271 13.8316633266533  L 13.9037800687285 0.29058116232465  C 14.098510882016 0.0968603874415488  14.3224513172967 0  14.5756013745704 0  C 14.8287514318442 0  15.0526918671249 0.0968603874415488  15.2474226804124 0.29058116232465  L 16.7079037800687 1.74348697394789  Z " fill-rule="nonzero" fill="#ffffff" stroke="none" transform="matrix(1 0 0 1 2014 237 )" />
  </g>
</svg>