<svg t="1606230167343" class="icon" viewBox="0 0 1024 1024" version="1.1" xmlns="http://www.w3.org/2000/svg" p-id="13676" width="48" height="48"><path d="M698.07616 652.68224c-53.80608-20.16256-110.4384-35.06176-169.00096-44.18048 2.69824 0 5.52448 0.128 7.8336 0.64512-13.99808-2.57024-24.52992-15.0272-24.52992-29.92128 0-7.5776 2.69824-14.5152 7.3216-19.78368-0.26624 0.39424-0.77312 0.52224-1.15712 0.64512a301.91616 301.91616 0 0 0 41.22112-56.3712c19.52256-3.97312 40.58112-19.65056 54.57408-43.53536 21.18656-35.95264 18.36544-76.40576-5.90336-90.40384-1.54112-0.90112-3.21024-1.28-5.01248-1.92512 0.128-1.02912 0-1.92512 0.128-2.95936h1.54112V272.1792h-0.77312c0.39424-3.72736 0.77312-7.5776 0.77312-11.43296 0-69.98528-56.23808-126.7456-125.9776-127.77472-31.2064-29.02016-72.8064-47.0016-118.656-47.0016-96.44032 0-174.6432 78.07488-174.6432 174.64832 0 3.85024 0.384 7.82848 0.64 11.68896h-0.64v92.71296h1.54112c0.12288 1.02912 0 1.92512 0.12288 2.95424-1.66912 0.64-3.33824 1.02912-5.00736 1.92512-24.40192 13.87008-26.96704 54.3232-5.90848 90.40896 13.99808 23.8848 34.80064 39.552 54.5792 43.53536 11.81184 20.67456 25.68192 39.936 41.22112 56.3712-0.384-0.256-0.90112-0.37888-1.15712-0.64a30.0544 30.0544 0 0 1 7.3216 19.77856 30.37696 30.37696 0 0 1-24.52992 29.92128c2.44224-0.512 5.14048-0.64512 7.9616-0.64512a854.58432 854.58432 0 0 0-168.47872 43.91936C38.52288 676.43392 0 730.11712 0 793.04192v20.28544c0 46.48448 31.4624 85.2736 74.22464 98.10944a1470.976 1470.976 0 0 0 321.42336 35.44576c110.3104 0 217.67168-12.32896 320.9216-35.44576 43.01312-12.58496 74.73152-51.49184 74.73152-98.10944v-20.28544c-0.37888-62.7968-38.77888-116.34688-93.22496-140.35968z m-96.82432-108.64128c3.85024 4.75136 6.42048 10.78272 6.42048 17.59232 0 5.39648-1.67424 10.14272-4.49536 14.38208 96.31232 22.7328 138.42944 44.43648 130.34496 41.23136 60.99456 28.75392 103.7568 93.09184 103.7568 168.35072v24.5248c0 22.08256-5.64736 42.51136-15.14496 60.22656a1194.91072 1194.91072 0 0 0 139.83744-23.49568c35.44576-10.78272 61.3888-44.17536 61.3888-84.11648v-17.4592c0-53.8112-31.59552-99.78368-76.41088-120.33024-45.07648-17.59232-92.46208-30.43328-141.38368-38.26688 2.94912 0 11.56096 1.92 14.24896 2.43712-12.19584-2.304-27.09504-15.27808-27.09504-28.38016 0-6.67648 6.29248-23.62368 10.27584-28.25216-1.66912 1.92512-9.3696 12.84096-14.63808 12.06784 70.11328-11.17184 118.66112-35.06176 118.66112-62.9248 0-5.77536-2.05312-11.17696-6.0416-16.44032 0.51712 0.64 1.29024 1.02912 1.67424 1.93536a162.83136 162.83136 0 0 1-18.88256-76.28288V365.4144c0-102.7328-83.34336-186.07616-186.07616-186.07616-18.74944 0-36.59776 3.08224-53.6832 8.2176a171.776 171.776 0 0 1 7.4496 50.33984c0 3.85024-0.512 7.7056-0.76288 11.42784h0.76288v91.30496c31.5904 32.4864 30.82752 95.4112-5.64736 152.42752-12.84608 20.03456-27.47904 38.784-44.43648 52.00896" p-id="13677" fill="#ffffff"></path></svg>