<svg t="1606230116437" class="icon" viewBox="0 0 1024 1024" version="1.1" xmlns="http://www.w3.org/2000/svg" p-id="12145" width="48" height="48"><path d="M573.058008 41.470756l105.724829 222.713318c9.599712 20.99137 28.99113 35.198944 51.134466 38.526845l235.832925 35.710928c55.67833 8.511745 77.885663 79.933602 37.502875 120.764377l-170.490886 174.01078c-15.871524 16.383508-23.295301 39.67881-19.32742 62.910113l40.318791 244.792656c9.727708 57.854264-48.830535 102.076938-98.813036 74.877754l-211.449657-116.220514a65.66203 65.66203 0 0 0-63.102107 0l-210.809675 115.644531c-49.982501 27.199184-107.964761-17.023489-98.877034-74.877754l40.31879-244.792656a72.637821 72.637821 0 0 0-19.32742-62.910113L20.626581 459.762207C-19.692209 418.931432 2.451127 347.509575 58.257452 338.99783l235.832925-35.710929c22.143336-3.391898 41.470756-17.535474 51.134466-38.526844L450.885674 42.046739a66.813996 66.813996 0 0 1 122.172334-0.639981z" p-id="12146" fill="#ffffff"></path></svg>