<svg t="1606296937449" class="icon" viewBox="0 0 1248 1024" version="1.1" xmlns="http://www.w3.org/2000/svg" p-id="3361" width="32" height="32"><path d="M979.841 588.67c-58.763 85.536-139.431 188.11-209.668 248.611-51.113 43.811-145.342 111.962-219.751 99.444-191.587-31.989-150.558-501.047-279.557-606.75-59.11-17.038-87.275 73.366-119.959 19.819-50.765-42.42 49.027-116.482 99.792-159.25 62.935-52.852 136.649-127.957 219.751-95.272 161.684 63.631 45.897 448.891 199.584 533.036 79.625-63.978 168.638-169.334 149.862-298.333-14.951-43.116-87.97-29.555-129.695-19.819-2.086-196.803 387.347-347.708 419.336-79.625 17.733 164.118-129.695 358.139-129.695 358.139z" p-id="3362" fill="#ffffff"></path></svg>