<?xml version="1.0" encoding="utf-8"?>
<svg version="1.1" xmlns:xlink="http://www.w3.org/1999/xlink" width="14px" height="12px" xmlns="http://www.w3.org/2000/svg">
  <g transform="matrix(1 0 0 1 -457 -202 )">
    <path d="M 7.66293279022403 11.3677419354839  C 7.31602172437204 11.789247311828  7.09504412763069 12  7 12  C 6.90495587236931 12  6.68397827562797 11.789247311828  6.33706720977597 11.3677419354839  C 5.99015614392397 10.9462365591398  5.81670061099796 10.6781362007169  5.81670061099796 10.5634408602151  C 5.81670061099796 10.3799283154122  5.96520706042091 10.2250896057348  6.2622199592668 10.0989247311828  C 6.55923285811269 9.97275985663083  6.8051595383571 9.90967741935484  7 9.90967741935484  C 7.1948404616429 9.90967741935484  7.44076714188731 9.97275985663083  7.7377800407332 10.0989247311828  C 8.03479293957909 10.2250896057348  8.18329938900204 10.3799283154122  8.18329938900204 10.5634408602151  C 8.18329938900204 10.6781362007169  8.00984385607603 10.9462365591398  7.66293279022403 11.3677419354839  Z M 9.59114052953157 9.0236559139785  C 9.23234894772573 9.45376344086022  9.010183299389 9.66881720430107  8.92464358452138 9.66881720430107  C 8.91513917175831 9.66881720430107  8.82009504412763 9.59713261648746  8.63951120162933 9.45376344086022  C 8.45892735913103 9.31039426523297  8.21775288526816 9.16702508960574  7.91598778004073 9.0236559139785  C 7.61422267481331 8.88028673835126  7.30889341479973 8.80860215053764  7 8.80860215053764  C 6.69110658520027 8.80860215053764  6.38577732518669 8.88028673835126  6.08401221995927 9.0236559139785  C 5.78224711473184 9.16702508960574  5.54226069246435 9.31039426523297  5.36405295315682 9.45376344086022  C 5.18584521384929 9.59713261648746  5.08961303462322 9.66881720430107  5.07535641547862 9.66881720430107  C 4.989816700611 9.66881720430107  4.76765105227427 9.45376344086022  4.40885947046843 9.0236559139785  C 4.0500678886626 8.59354838709677  3.87067209775968 8.32688172043011  3.87067209775968 8.22365591397849  C 3.87067209775968 8.14910394265233  3.89443312966735 8.0831541218638  3.94195519348268 8.02580645161291  C 4.31262729124236 7.584229390681  4.77834351663272 7.23727598566308  5.33910386965377 6.98494623655914  C 5.89986422267481 6.7326164874552  6.45349626612356 6.60645161290323  7 6.60645161290323  C 7.54650373387645 6.60645161290323  8.10013577732519 6.7326164874552  8.66089613034623 6.98494623655914  C 9.22165648336728 7.23727598566308  9.68737270875764 7.584229390681  10.0580448065173 8.02580645161291  C 10.1055668703327 8.0831541218638  10.1293279022403 8.14910394265233  10.1293279022403 8.22365591397849  C 10.1293279022403 8.32688172043011  9.9499321113374 8.59354838709677  9.59114052953157 9.0236559139785  Z M 11.5264765784114 6.68387096774193  C 11.1700610997963 7.11397849462366  10.9514596062458 7.32903225806452  10.8706720977597 7.32903225806452  C 10.8183978275628 7.32903225806452  10.7637474541751 7.30609318996416  10.7067209775967 7.26021505376344  C 10.0604209097081 6.65806451612903  9.46164290563476 6.21505376344086  8.91038696537679 5.93118279569892  C 8.35913102511881 5.64731182795699  7.72233536999321 5.50537634408602  7 5.50537634408602  C 6.59606245756959 5.50537634408602  6.19093686354379 5.568458781362  5.78462321792261 5.69462365591398  C 5.37830957230143 5.82078853046595  5.02427019687712 5.97275985663082  4.7225050916497 6.15053763440861  C 4.42073998642227 6.32831541218638  4.1510522742702 6.50609318996416  3.91344195519348 6.68387096774193  C 3.67583163611677 6.86164874551972  3.48811948404617 7.01362007168458  3.35030549898168 7.13978494623656  C 3.21249151391718 7.26594982078853  3.13883231500339 7.32903225806452  3.12932790224032 7.32903225806452  C 3.04854039375424 7.32903225806452  2.82993890020367 7.11397849462366  2.4735234215886 6.68387096774193  C 2.11710794297353 6.25376344086021  1.93890020366599 5.98709677419355  1.93890020366599 5.88387096774194  C 1.93890020366599 5.81505376344086  1.96266123557366 5.75197132616487  2.010183299389 5.69462365591398  C 2.63747454175153 4.93763440860215  3.39782756279702 4.34982078853047  4.29124236252546 3.93118279569892  C 5.18465716225391 3.51254480286738  6.08757637474542 3.30322580645161  7 3.30322580645161  C 7.91242362525458 3.30322580645161  8.8153428377461 3.51254480286738  9.70875763747454 3.93118279569892  C 10.602172437203 4.34982078853047  11.3625254582485 4.93763440860215  11.989816700611 5.69462365591398  C 12.0373387644264 5.75197132616487  12.061099796334 5.81505376344086  12.061099796334 5.88387096774194  C 12.061099796334 5.98709677419355  11.8828920570265 6.25376344086021  11.5264765784114 6.68387096774193  Z M 13.4618126272912 4.35268817204301  C 13.1030210454854 4.78279569892473  12.8832315003394 4.99784946236559  12.8024439918534 4.99784946236559  C 12.7501697216565 4.99784946236559  12.6978954514596 4.97204301075269  12.6456211812627 4.92043010752688  C 11.7949762389681 4.02007168458781  10.9122539035981 3.34193548387097  9.99745417515275 2.88602150537634  C 9.0826544467074 2.43010752688172  8.08350305498982 2.20215053763441  7 2.20215053763441  C 5.91649694501018 2.20215053763441  4.9173455532926 2.43010752688172  4.00254582484725 2.88602150537634  C 3.0877460964019 3.34193548387097  2.20502376103191 4.02007168458781  1.35437881873727 4.92043010752688  C 1.3021045485404 4.97204301075269  1.24983027834352 4.99784946236559  1.19755600814664 4.99784946236559  C 1.11676849966056 4.99784946236559  0.896978954514594 4.78279569892473  0.538187372708755 4.35268817204301  C 0.179395790902923 3.92258064516129  0 3.65591397849462  0 3.55268817204301  C 0 3.47813620071685  0.023761031907668 3.41218637992832  0.0712830957230182 3.35483870967742  C 0.959945689069926 2.28817204301075  2.01731160896131 1.46236559139785  3.24338085539715 0.877419354838711  C 4.46945010183299 0.292473118279572  5.72165648336728 0  7 0  C 8.27834351663272 0  9.53054989816701 0.292473118279572  10.7566191446029 0.877419354838711  C 11.9826883910387 1.46236559139785  13.0400543109301 2.28817204301075  13.928716904277 3.35483870967742  C 13.9762389680923 3.41218637992832  14 3.47813620071685  14 3.55268817204301  C 14 3.65591397849462  13.8206042090971 3.92258064516129  13.4618126272912 4.35268817204301  Z " fill-rule="nonzero" fill="#333333" stroke="none" transform="matrix(1 0 0 1 457 202 )" />
  </g>
</svg>