<svg t="1606300603318" class="icon" viewBox="0 0 1024 1024" version="1.1" xmlns="http://www.w3.org/2000/svg" p-id="4967" width="32" height="32"><path d="M792.3 209.8H619.7c-11.5 0.6-20.5 10-20.5 21.6 0 11.5 9 21 20.5 21.6h121.8L599.7 394.9c-97.2-81.5-241.3-72.1-327.1 21.3-85.8 93.4-83 237.7 6.4 327.7s233.7 93.7 327.7 8.5S711 523.2 630.1 425.5l140.7-140.7V404c0.6 11.5 10 20.5 21.6 20.5 11.5 0 21-9 21.6-20.5V231.5c0-5.7-2.3-11.2-6.3-15.3-4.2-4.1-9.7-6.4-15.4-6.4zM447.2 770.6c-107.1-0.1-194-87-194.1-194.1 0.1-107.1 87-194 194.1-194.1 107.1 0.1 194 87 194.1 194.1-0.2 107.2-87 194-194.1 194.1z m0 0" fill="#166FFC" p-id="4968"></path></svg>