<?xml version="1.0" encoding="utf-8"?>
<svg version="1.1" xmlns:xlink="http://www.w3.org/1999/xlink" width="78px" height="78px" xmlns="http://www.w3.org/2000/svg">
  <g transform="matrix(1 0 0 1 -564 -906 )">
    <path d="M 603 907  C 624.28 907  641 923.72  641 945  C 641 966.28  624.28 983  603 983  C 581.72 983  565 966.28  565 945  C 565 923.72  581.72 907  603 907  Z " fill-rule="nonzero" fill="#ffffff" stroke="none" fill-opacity="0" />
    <path d="M 603 907  C 624.28 907  641 923.72  641 945  C 641 966.28  624.28 983  603 983  C 581.72 983  565 966.28  565 945  C 565 923.72  581.72 907  603 907  Z " stroke-width="2" stroke="#797979" fill="none" />
  </g>
</svg>