<svg t="1605798974314" class="icon" viewBox="0 0 1025 1024" version="1.1" xmlns="http://www.w3.org/2000/svg" p-id="2864" width="32" height="32"><path d="M883.6864 442.86976l-245.65248 244.00384c-1.41824 1.46944-2.87232 2.91328-4.352 4.33152l-7.7568 7.69536a30.65344 30.65344 0 0 1-10.70592 6.86592 128.17408 128.17408 0 0 1-70.04672 20.72576 128.2048 128.2048 0 0 1-70.80448-21.19168 30.52544 30.52544 0 0 1-9.55904-6.4l-3.98336-3.95776a125.93664 125.93664 0 0 1-12.16-12.07808L268.3136 503.7056a30.2592 30.2592 0 0 1 0-43.01312c11.94496-11.89376 31.3344-11.89376 43.30496 0l73.19552 72.69888 35.73248 35.49696 75.24352 74.73664h0.45568c12.13952 13.37344 29.54752 21.92384 49.10592 21.92384 19.26144 0 36.46464-8.28928 48.5888-21.30432h0.41472l111.61088-110.848-0.00512-0.00512 134.42048-133.54496a30.74048 30.74048 0 0 1 43.30496 0 30.29504 30.29504 0 0 1 0 43.02336z m-244.19328 93.42976a25.61024 25.61024 0 0 1-36.07552 0 25.20576 25.20576 0 0 1 0-35.85024l133.30944-132.41344a25.63072 25.63072 0 0 1 36.08576 0 25.216 25.216 0 0 1 0 35.83488l-133.31968 132.4288z m-61.6704-61.47584a25.62048 25.62048 0 0 1-36.09088 0 25.22624 25.22624 0 0 1 0-35.83488l92.91264-92.29312a25.6256 25.6256 0 0 1 36.096 0 25.216 25.216 0 0 1 0 35.83488l-92.91776 92.29312z m-60.3904-59.99616a25.6 25.6 0 0 1-36.07552 0 25.19552 25.19552 0 0 1 0-35.84l62.27968-61.8752a25.64096 25.64096 0 0 1 36.096 0 25.24672 25.24672 0 0 1 0 35.84512l-62.30016 61.87008z m40.09472 137.54368a30.28992 30.28992 0 0 1 0 43.02336c-11.97568 11.86304-31.36512 11.86304-43.30496 0L371.15392 453.28384c-27.15136-26.95168-47.96928-39.4496-90.16832-41.60512h-14.21824c-38.95296 2.47296-46.47424 16.61952-46.47424 60.30336l-1.12128-44.93312v126.58176c0 16.80384-13.7216 30.4128-30.63296 30.4128-16.91648 0-30.6176-13.60896-30.6176-30.4128V411.67872c0-33.59744 27.4176-60.83584 61.25056-60.83584h84.63872a132.44928 132.44928 0 0 1 77.4144 27.82208c1.88416 1.18784 3.67616 2.54464 5.30432 4.1728l3.28192 3.23584c2.28864 2.13504 4.51584 4.34688 6.66624 6.62528l6.43584 6.40512v-0.31744l154.61376 153.58464z" p-id="2865" fill="#ffffff"></path><path d="M515.0464 1023.15008c-281.69728 0-510.86848-229.17632-510.86848-510.8736C4.17792 230.58432 233.35424 1.408 515.0464 1.408s510.86848 229.17632 510.86848 510.86848c0 281.69728-229.17632 510.8736-510.86848 510.8736z m0-950.06208c-242.17088 0-439.18848 197.0176-439.18848 439.18848s197.0176 439.1936 439.18848 439.1936 439.18848-197.0176 439.18848-439.1936c0-242.17088-197.0176-439.18848-439.18848-439.18848z" p-id="2866" fill="#ffffff"></path></svg>