<?xml version="1.0" encoding="utf-8"?>
<svg version="1.1" xmlns:xlink="http://www.w3.org/1999/xlink" width="20px" height="18px" xmlns="http://www.w3.org/2000/svg">
  <g transform="matrix(1 0 0 1 -424 -2627 )">
    <path d="M 19.9976851851852 6.03409090909091  C 20 5.23181818181818  19.8356481481481 4.45227272727273  19.5138888888889 3.71818181818182  C 19.2037037037037 3.01136363636364  18.7592592592593 2.37954545454545  18.1967592592593 1.83636363636364  C 17.6342592592593 1.29545454545454  16.9814814814815 0.872727272727272  16.2523148148148 0.575000000000001  C 15.5 0.268181818181819  14.7037037037037 0.113636363636364  13.8819444444444 0.113636363636364  C 12.7407407407407 0.113636363636364  11.6273148148148 0.420454545454546  10.6597222222222 0.999999999999999  C 10.4282407407407 1.13863636363636  10.2083333333333 1.29090909090909  10 1.45681818181818  C 9.79166666666667 1.29090909090909  9.57175925925926 1.13863636363636  9.34027777777778 0.999999999999999  C 8.37268518518518 0.420454545454546  7.25925925925926 0.113636363636364  6.11805555555556 0.113636363636364  C 5.2962962962963 0.113636363636364  4.5 0.268181818181819  3.74768518518519 0.575000000000001  C 3.02083333333333 0.870454545454546  2.36574074074074 1.29545454545454  1.80324074074074 1.83636363636364  C 1.23842592592593 2.37954545454545  0.796296296296297 3.01136363636363  0.48611111111111 3.71818181818182  C 0.164351851851852 4.45227272727273  0 5.23181818181818  0 6.03409090909091  C 0 6.79090909090909  0.157407407407408 7.57954545454545  0.469907407407408 8.38181818181818  C 0.73148148148148 9.05227272727272  1.10648148148148 9.74772727272727  1.58564814814815 10.45  C 2.34490740740741 11.5613636363636  3.38888888888889 12.7204545454545  4.68518518518518 13.8954545454545  C 6.83333333333333 15.8431818181818  8.96064814814815 17.1886363636364  9.05092592592593 17.2431818181818  L 9.59953703703704 17.5886363636364  C 9.84259259259259 17.7409090909091  10.1550925925926 17.7409090909091  10.3981481481482 17.5886363636364  L 10.9467592592593 17.2431818181818  C 11.037037037037 17.1863636363636  13.162037037037 15.8431818181818  15.3125 13.8954545454545  C 16.6087962962963 12.7204545454545  17.6527777777778 11.5613636363636  18.412037037037 10.45  C 18.8912037037037 9.74772727272727  19.2685185185185 9.05227272727273  19.5277777777778 8.38181818181818  C 19.8402777777778 7.57954545454545  19.9976851851852 6.79090909090909  19.9976851851852 6.03409090909091  Z M 18.2407407407407 6.03409090909091  C 18.2407407407407 10.6068181818182  10 15.7909090909091  10 15.7909090909091  C 10 15.7909090909091  1.75925925925926 10.6068181818182  1.75925925925926 6.03409090909091  C 1.75925925925926 3.71818181818182  3.71064814814815 1.84090909090909  6.11805555555556 1.84090909090909  C 7.81018518518518 1.84090909090909  9.27777777777778 2.76818181818182  10 4.12272727272727  C 10.7222222222222 2.76818181818182  12.1898148148148 1.84090909090909  13.8819444444444 1.84090909090909  C 16.2893518518519 1.84090909090909  18.2407407407407 3.71818181818182  18.2407407407407 6.03409090909091  Z " fill-rule="nonzero" fill="#ffffff" stroke="none" transform="matrix(1 0 0 1 424 2627 )" />
  </g>
</svg>