<?xml version="1.0" encoding="utf-8"?>
<svg version="1.1" xmlns:xlink="http://www.w3.org/1999/xlink" width="15px" height="13px" xmlns="http://www.w3.org/2000/svg">
  <g transform="matrix(1 0 0 1 -418 -4856 )">
    <path d="M 14.9982638888889 4.35795454545455  C 15 3.77853535353535  14.8767361111111 3.21553030303031  14.6354166666667 2.68535353535354  C 14.4027777777778 2.17487373737374  14.0694444444444 1.71856060606061  13.6475694444444 1.32626262626263  C 13.2256944444444 0.93560606060606  12.7361111111111 0.63030303030303  12.1892361111111 0.415277777777779  C 11.625 0.19368686868687  11.0277777777778 0.0820707070707073  10.4114583333333 0.0820707070707073  C 9.55555555555556 0.0820707070707073  8.72048611111111 0.303661616161616  7.99479166666667 0.722222222222222  C 7.82118055555555 0.822348484848484  7.65625 0.932323232323231  7.5 1.05214646464646  C 7.34375 0.932323232323231  7.17881944444444 0.822348484848484  7.00520833333333 0.722222222222222  C 6.27951388888889 0.303661616161616  5.44444444444444 0.0820707070707073  4.58854166666667 0.0820707070707073  C 3.97222222222222 0.0820707070707073  3.375 0.19368686868687  2.81076388888889 0.415277777777779  C 2.265625 0.628661616161617  1.77430555555556 0.93560606060606  1.35243055555555 1.32626262626263  C 0.928819444444444 1.71856060606061  0.597222222222222 2.17487373737374  0.364583333333333 2.68535353535354  C 0.123263888888889 3.2155303030303  0 3.77853535353535  0 4.35795454545454  C 0 4.90454545454545  0.118055555555556 5.47411616161616  0.352430555555556 6.05353535353535  C 0.54861111111111 6.53775252525252  0.829861111111112 7.04002525252525  1.18923611111111 7.54722222222222  C 1.75868055555556 8.34987373737373  2.54166666666667 9.18699494949495  3.51388888888889 10.0356060606061  C 5.125 11.442297979798  6.72048611111111 12.4140151515151  6.78819444444444 12.4534090909091  L 7.19965277777778 12.702904040404  C 7.38194444444444 12.8128787878788  7.61631944444445 12.8128787878788  7.79861111111111 12.702904040404  L 8.21006944444444 12.4534090909091  C 8.27777777777778 12.4123737373737  9.87152777777778 11.442297979798  11.484375 10.0356060606061  C 12.4565972222222 9.18699494949495  13.2395833333333 8.34987373737374  13.8090277777778 7.54722222222222  C 14.1684027777778 7.04002525252525  14.4513888888889 6.53775252525253  14.6458333333333 6.05353535353535  C 14.8802083333333 5.47411616161616  14.9982638888889 4.90454545454545  14.9982638888889 4.35795454545455  Z M 13.6805555555556 4.35795454545454  C 13.6805555555556 7.6604797979798  7.5 11.4045454545455  7.5 11.4045454545455  C 7.5 11.4045454545455  1.31944444444444 7.6604797979798  1.31944444444444 4.35795454545454  C 1.31944444444444 2.68535353535354  2.78298611111111 1.32954545454545  4.58854166666667 1.32954545454545  C 5.85763888888889 1.32954545454545  6.95833333333333 1.99924242424242  7.5 2.97752525252525  C 8.04166666666667 1.99924242424242  9.14236111111111 1.32954545454545  10.4114583333333 1.32954545454545  C 12.2170138888889 1.32954545454545  13.6805555555556 2.68535353535354  13.6805555555556 4.35795454545454  Z " fill-rule="nonzero" fill="#ffffff" stroke="none" transform="matrix(1 0 0 1 418 4856 )" />
  </g>
</svg>