<?xml version="1.0" encoding="utf-8"?>
<svg version="1.1" xmlns:xlink="http://www.w3.org/1999/xlink" width="20px" height="17px" xmlns="http://www.w3.org/2000/svg">
  <g transform="matrix(1 0 0 1 -540 -538 )">
    <path d="M 19.9976851851852 5.69886363636364  C 20 4.94116161616162  19.8356481481481 4.20492424242425  19.5138888888889 3.51161616161616  C 19.2037037037037 2.84406565656566  18.7592592592593 2.24734848484848  18.1967592592593 1.73434343434343  C 17.6342592592593 1.22348484848485  16.9814814814815 0.824242424242424  16.2523148148148 0.543055555555557  C 15.5 0.253282828282829  14.7037037037037 0.107323232323233  13.8819444444444 0.107323232323233  C 12.7407407407407 0.107323232323233  11.6273148148148 0.39709595959596  10.6597222222222 0.944444444444444  C 10.4282407407407 1.07537878787879  10.2083333333333 1.21919191919192  10 1.37588383838384  C 9.79166666666667 1.21919191919192  9.57175925925926 1.07537878787879  9.34027777777778 0.944444444444444  C 8.37268518518518 0.39709595959596  7.25925925925926 0.107323232323233  6.11805555555556 0.107323232323233  C 5.2962962962963 0.107323232323233  4.5 0.253282828282829  3.74768518518519 0.543055555555557  C 3.02083333333333 0.82209595959596  2.36574074074074 1.22348484848485  1.80324074074074 1.73434343434343  C 1.23842592592593 2.24734848484848  0.796296296296297 2.84406565656565  0.48611111111111 3.51161616161616  C 0.164351851851852 4.20492424242424  0 4.94116161616162  0 5.69886363636363  C 0 6.41363636363636  0.157407407407408 7.15845959595959  0.469907407407408 7.91616161616161  C 0.73148148148148 8.54936868686868  1.10648148148148 9.20618686868687  1.58564814814815 9.86944444444444  C 2.34490740740741 10.9190656565656  3.38888888888889 12.0137626262626  4.68518518518518 13.1234848484848  C 6.83333333333333 14.963005050505  8.96064814814815 16.2337121212121  9.05092592592593 16.2852272727273  L 9.59953703703704 16.6114898989899  C 9.84259259259259 16.755303030303  10.1550925925926 16.755303030303  10.3981481481482 16.6114898989899  L 10.9467592592593 16.2852272727273  C 11.037037037037 16.2315656565657  13.162037037037 14.963005050505  15.3125 13.1234848484848  C 16.6087962962963 12.0137626262626  17.6527777777778 10.9190656565657  18.412037037037 9.86944444444444  C 18.8912037037037 9.20618686868687  19.2685185185185 8.54936868686869  19.5277777777778 7.91616161616161  C 19.8402777777778 7.15845959595959  19.9976851851852 6.41363636363636  19.9976851851852 5.69886363636364  Z M 18.2407407407407 5.69886363636363  C 18.2407407407407 10.0175505050505  10 14.9136363636364  10 14.9136363636364  C 10 14.9136363636364  1.75925925925926 10.0175505050505  1.75925925925926 5.69886363636363  C 1.75925925925926 3.51161616161616  3.71064814814815 1.73863636363636  6.11805555555556 1.73863636363636  C 7.81018518518518 1.73863636363636  9.27777777777778 2.61439393939394  10 3.89368686868687  C 10.7222222222222 2.61439393939394  12.1898148148148 1.73863636363636  13.8819444444444 1.73863636363636  C 16.2893518518519 1.73863636363636  18.2407407407407 3.51161616161616  18.2407407407407 5.69886363636363  Z " fill-rule="nonzero" fill="#d9001b" stroke="none" transform="matrix(1 0 0 1 540 538 )" />
  </g>
</svg>