<?xml version="1.0" encoding="utf-8"?>
<svg version="1.1" xmlns:xlink="http://www.w3.org/1999/xlink" width="31px" height="25px" xmlns="http://www.w3.org/2000/svg">
  <g transform="matrix(1 0 0 1 -2335 -228 )">
    <path d="M 30.8238636363636 1.12141148325359  C 30.8238636363636 0.501130756578947  30.3319202769886 0  29.7230113636364 0  L 1.10085227272727 0  C 0.491943359375 0  0 0.501130756578947  0 1.12141148325359  L 0 23.5496411483254  C 0 24.169921875  0.491943359375 24.6710526315789  1.10085227272727 24.6710526315789  L 29.7230113636364 24.6710526315789  C 30.3319202769886 24.6710526315789  30.8238636363636 24.169921875  30.8238636363636 23.5496411483254  L 30.8238636363636 1.12141148325359  Z M 29.2998712713068 3.12943892045454  L 28 3.88288726076555  L 28 22  L 3 22  L 3 3.88288726076555  L 1.52743252840909 3.12943892045454  L 2.87941672585227 1.35971142344498  L 4.351806640625 3  L 26.4754971590909 3  L 27.9478870738636 1.35971142344498  L 29.2998712713068 3.12943892045454  Z M 27.9444469105114 1.35971142344498  L 26.4754971590909 2.52317583732057  L 15.4119318181818 11.2842030502392  L 4.34836647727273 2.52317583732057  L 2.8759765625 1.35620701255981  L 1.52399236505682 3.12593450956938  L 2.47347745028409 3.87938284988038  L 14.2250754616477 13.1870981608852  C 14.9199884588068 13.7372906698565  15.8935546875 13.7372906698565  16.5884676846591 13.1870981608852  L 28.3469460227273 3.88288726076555  L 29.2964311079545 3.12943892045454  L 27.9444469105114 1.35971142344498  Z " fill-rule="nonzero" fill="#ffffff" stroke="none" transform="matrix(1 0 0 1 2335 228 )" />
  </g>
</svg>